<svg xmlns="http://www.w3.org/2000/svg" version="1.1" xmlns:xlink="http://www.w3.org/1999/xlink" xmlns:svgjs="http://svgjs.dev/svgjs" width="500" height="500"><rect width="500" height="500" fill="#0284c7"></rect><g transform="matrix(0.5,0,0,0.5,150.26,142.63092539950424)"><g><svg viewBox="15 -6 220 260" xmlns="http://www.w3.org/2000/svg" x="224.88" y="228.6198">
     <g>
       <path d="m 105,166.5
            h 21
            v 26
            a 116.53,116.53 0 0 1 15.75,2.5
            l 13.12,22.72
            a 109.85,109.85 0 0 1 -78.74,0
            L 89.25,195
            A 116.6,116.6 0 0 1 105,192.47
            v -26
            z" fill="#f6f6f6" fill-rule="evenodd"></path>
     </g>
   </svg><svg xmlns="http://www.w3.org/2000/svg" viewBox="-18 5 260 260" x="200.04" y="251.67312202838193">
      <path id="path12-1-9" style="fill:#c0c0c0;fill-rule:evenodd" d="M 115.45,211.34 126,221.88 a 2.51,2.51 0 0 0 3.5599,0 2,2 0 0 0 0.26999,-0.30994 
        l 18.48,-25.4 -5.8901,-5.8899 a 2.52,2.52 0 0 0 -3.4699,-0.089 l -23.49,21.14 z" class="clothes"></path>
          

      <path id="path10-1" style="fill:#c0c0c0;fill-rule:evenodd" d="m 115.45,211.34 -10.55,10.54 a 2.51,2.51 0 0 1 -3.5599,0 2,2 0 0 1 -0.26999,-0.30994 
        l -18.48,-25.4 5.8901,-5.8899 a 2.52,2.52 0 0 1 3.5199,-0.0791 l 23.49,21.14 z" class="clothes"></path>


  
      <path id="path8-6-4" style="fill:#949494;fill-rule:evenodd" d="m 141.75,195 a 114.79,114.79 0 0 1 38,16.5 
           115.53,115.53 0 0 1 -128.46,0 114.79,114.79 0 0 1 38,-16.5 
           L 105,210.75 h 21 z" class="clothes"></path>
        <path id="path14-1-8" style="fill:black;fill-rule:evenodd" d="m 158.41,199.58 -10.11,-3.2401 v 29.93 q 5.1601,-1.5299 10.11,-3.51 z 
           m -75.82,26.66 v -29.9 l -10.1,3.2401 v 23.14 
           c 3.2901,1.3199 6.67,2.4999 10.1,3.5199 z" class="clothes"></path>
    </svg><svg viewBox="-5 -23 200 200" xmlns="http://www.w3.org/2000/svg" x="185" y="98.3998">
    <circle cx="100" cy="100" r="63.75" fill="#f6f6f6"></circle>
   </svg><svg viewBox="20 20 220 200" xmlns="http://www.w3.org/2000/svg" x="249.0999392488929" y="205.9998">
     <g>
       <path d="m 100.35,143.85
            a 7.67,7.67 0 0 0 7.58,7.7 v 0
            a 7.66,7.66 0 0 0 7.57,-7.7
            7.66,7.66 0 0 0 7.57,7.7 v 0
            a 7.67,7.67 0 0 0 7.58,-7.7" fill="none" stroke="#333333" stroke-width="6.39978" stroke-linecap="round" stroke-linejoin="round"></path>
     </g>
   </svg><svg viewBox="20 30 220 200" xmlns="http://www.w3.org/2000/svg" x="230.4" y="170.9198">
<path class="eyes" d="m129.31 114.14 20-5.37m-47.66 5.37-20-5.37" style="fill:none;stroke-linecap:round;stroke-linejoin:round;stroke-width:4.9998px;stroke:#1a1a1a"></path>
</svg><svg xmlns="http://www.w3.org/2000/svg" viewBox="5 -38 210 260" preserveAspectRatio="none" x="189.63558571699446" y="75">
      <path class="top" d="m41.835 75.131c-2.8674 12.582 1.2304 27.241 6.0238 39.031 0.25861 0.63658 0.51208 1.3075 0.79989 1.9683 0.71726 1.658 2.1184 3.9751 3.0038 3.9266 0.56895-0.0312 0.71637-1.5512 1.0228-3.1562 2.1988-19.097 8.8981-27.915 15.636-38.107 2.8783-4.0645 3.8616-7.2293 1.0644-9.9325-6.3236-3.5596-14.924-2.8574-21.367-0.67406-3.2312 1.4765-5.2427 3.4773-6.1842 6.9439zm125.65-8.5679c7.65-0.70616 19.714-0.1307 21.694 8.5679 1.455 6.4083 0.26915 17.747-1.0542 24.579-1.1961 5.3203-3.8066 14.231-7.8782 19.75-0.5565 0.44544-0.96888 0.13656-1.4159-1.1606-0.90692-3.0353-1.4298-7.8372-2.2556-10.727-3.4822-12.79-8.2195-21.875-14.429-29.94-5.5782-6.8415-4.2152-9.7207 5.3393-11.069z" style="fill:#4d4d4d"></path>
  
      <path class="top" d="m112.27 73.826c-18.585-7.5217-34.987-14.797-48.939 5.018-4.9752 7.083-3.7876 8.8056-4.9217 0.0749-1.637-12.476-4.7505-34.174 1.9259-45.194 7.6822-12.7 19.323-13.128 31.039-5.3818 10.796 7.7784 24.277 14.647 38.015 12.219 12.732-2.2576 15.835-7.7464 15.707-19.912-0.0215-2.6-0.0963-5.2106-0.2033-7.7999 13.631 3.9267 24.609 14.776 26.513 29.049 0.88804 6.6336 0.26749 12.722-1.9259 19.013-5.9702 17.108-30.119 20.896-45.74 16.841-3.9588-1.0378-7.6822-2.4181-11.47-3.9267z" style="fill:#4d4d4d"></path>
    </svg></g></g></svg>